With: Cuba Gooding Jr., Cole Hauser en Jonathan LaPaglia

Allan Campbell (Cole Hauser) heeft een slechte dag achter de rug. Hij gaat naar een bar om zijn zijn zorgen te verdrinken. In een dronken bui raakt hij aan de praat met een mysterieuze man die zichzelf Jonas noemt (Cuba Gooding Jr.). Na een tijdje geeft Jonas aan mensen te vermoorden voor geld en vraagt Allan vijf mensen op te schrijven die hij dood zou willen hebben. Allan ziet er de lol wel van in en schrijft de namen op om aan het spelletje mee te doen. Wanneer de doden zich op beginnen te stapelen en rechercheur Neil McKay (Jonathan LaPaglia) Allan op het spoor is, blijkt het niet om een grap te gaan. Hij zal nu alles in het werk moeten stellen om de moorden te stoppen.

A disgruntled man creates a hit list with a stranger during a drunken night out and must then race to try to save those he marked for extermination as the bodies begin to pile up and all fingers point to him. 

------------------ Dutch Friends ------------------
You can find my Friends at: http://www.Film-Test.nl 
------ They got my dutchs subs ---- and more ------

General:

Complete name                    : The Hit List\The Hit List.avi
Format                           : AVI
Format/Info                      : Audio Video Interleave
File size                        : 1.07 GiB
Duration                         : 1h 26mn
Overall bit rate                 : 1 766 Kbps

Video:

Format                           : MPEG-4 Visual
Format profile                   : Simple@L3
Format settings, BVOP            : No
Format settings, QPel            : No
Format settings, GMC             : No warppoints
Format settings, Matrix          : Default (H.263)
Codec ID                         : XVID
Codec ID/Hint                    : XviD
Duration                         : 1h 26mn
Bit rate                         : 1 307 Kbps
Width                            : 704 pixels
Height                           : 396 pixels
Display aspect ratio             : 16:9
Frame rate                       : 25.000 fps
Color space                      : YUV
Chroma subsampling               : 4:2:0
Bit depth                        : 8 bits
Scan type                        : Progressive
Bits/(Pixel*Frame)               : 0.188
Stream size                      : 808 MiB (74%)
Writing library                  : XviD 1.1.2 (UTC 2006-11-01)

Audio:

Format                           : AC-3
Format/Info                      : Audio Coding 3
Mode extension                   : CM (complete main)
Codec ID                         : 2000
Duration                         : 1h 26mn
Bit rate mode                    : Constant
Bit rate                         : 448 Kbps
Channel(s)                       : 6 channels
Channel positions                : Front: L C R, Side: L R, LFE
Sampling rate                    : 48.0 KHz
Bit depth                        : 16 bits
Stream size                      : 277 MiB (25%)
Alignment                        : Aligned on interleaves
Interleave, duration             : 32 ms (0.80 video frame)
Interleave, preload duration     : 1504 ms


